#!OML:ASF E:\acrobat2\Project_11_07_03\Capture day 1\Session 1\Acrobat.ASF
:FULLY-SPECIFIED
:DEGREES
755
root 9.2956 6.04651 2.07695 96.5456 -4.65643 -84.9252
lowerback 11.9727 -3.09954 2.69964
upperback 4.34869 -3.89169 4.34609
thorax -2.00985 -2.06354 3.53942
lowerneck -5.61212 3.19407 -1.3624
upperneck 4.50531 3.08147 18.4914
head 1.95332 1.86144 5.93952
rclavicle 3.79679e-014 -6.67916e-014
rhumerus -34.7554 6.09198 -92.0912
rradius 86.1737
rwrist 1.51595
rhand -0.878512 -10.0082
rfingers 7.12502
rthumb 24.7486 -38.4272
lclavicle 3.79679e-014 -6.67916e-014
lhumerus 16.4506 -3.83042 107.247
lradius 110.547
lwrist 28.2661
lhand -27.4705 -14.8061
lfingers 7.12502
lthumb -0.874513 15.1718
rfemur -32.0444 0.665409 9.7649
rtibia 63.1102
rfoot 372.822 -13.8218
rtoes 40.6362
lfemur -23.4164 4.06578 -29.4608
ltibia 9.80112
lfoot 3.83539 5.54062
ltoes -5.28757
756
root 9.29441 6.04662 2.07749 96.5246 -4.56833 -84.8783
lowerback 11.9916 -3.1226 2.79592
upperback 4.34385 -3.9113 4.38653
thorax -2.02743 -2.07426 3.53226
lowerneck -5.47733 2.96851 -1.53656
upperneck 4.44337 2.79604 18.5107
head 1.93834 1.70686 5.96458
rclavicle -8.15017e-014 5.08889e-014
rhumerus -34.6991 6.18218 -92.1052
rradius 86.1836
rwrist 1.44056
rhand -0.992722 -10.0302
rfingers 7.12502
rthumb 24.6392 -38.4641
lclavicle -8.15017e-014 5.08889e-014
lhumerus 16.4379 -3.75578 107.273
lradius 110.582
lwrist 28.3195
lhand -27.4119 -14.7373
lfingers 7.12502
lthumb -0.817898 15.2409
rfemur -31.971 0.707348 9.84626
rtibia 62.9556
rfoot 372.823 -13.8038
rtoes 40.5237
lfemur -23.3678 4.04229 -29.3389
ltibia 9.75575
lfoot 3.81628 5.54359
ltoes -5.38588
757
root 9.29294 6.04676 2.07738 96.5032 -4.48685 -84.8335
lowerback 12.0057 -3.1464 2.87829
upperback 4.34263 -3.93388 4.42524
thorax -2.03772 -2.08655 3.53099
lowerneck -5.32543 2.75944 -1.71389
upperneck 4.35564 2.53714 18.5432
head 1.91043 1.56336 5.99448
rclavicle 3.89618e-014 -8.74653e-014
rhumerus -34.616 6.29543 -92.1149
rradius 86.1692
rwrist 1.3672
rhand -1.13058 -9.99133
rfingers 7.12502
rthumb 24.507 -38.4432
lclavicle 3.89618e-014 -8.74653e-014
lhumerus 16.4323 -3.68643 107.293
lradius 110.614
lwrist 28.3508
lhand -27.3844 -14.6279
lfingers 7.12502
lthumb -0.791354 15.3504
rfemur -31.9072 0.746499 9.92366
rtibia 62.8123
rfoot 372.856 -13.7705
rtoes 40.3678
lfemur -23.3146 4.01356 -29.2241
ltibia 9.70075
lfoot 3.80614 5.55228
ltoes -5.48879
758
root 9.29103 6.04716 2.07673 96.481 -4.41055 -84.7963
lowerback 12.0143 -3.16776 2.94803
upperback 4.34773 -3.95535 4.46051
thorax -2.03794 -2.09836 3.53237
lowerneck -5.17507 2.58238 -1.87203
upperneck 4.24964 2.32373 18.5735
head 1.87347 1.44193 6.02155
rclavicle -5.40694e-014 4.77083e-014
rhumerus -34.5165 6.41848 -92.1231
rradius 86.1445
rwrist 1.30981
rhand -1.28562 -9.8944
rfingers 7.12502
rthumb 24.3584 -38.3664
lclavicle -5.40694e-014 4.77083e-014
lhumerus 16.4363 -3.63271 107.307
lradius 110.644
lwrist 28.3646
lhand -27.3558 -14.5243
lfingers 7.12502
lthumb -0.763755 15.454
rfemur -31.8532 0.791786 9.99874
rtibia 62.6801
rfoot 372.907 -13.759
rtoes 40.3105
lfemur -23.255 3.9863 -29.1169
ltibia 9.63654
lfoot 3.80133 5.56829
ltoes -5.54496
759
root 9.28869 6.04807 2.07553 96.4689 -4.36032 -84.766
lowerback 12.0071 -3.18294 2.98655
upperback 4.35608 -3.97289 4.48472
thorax -2.02522 -2.10795 3.53779
lowerneck -5.04086 2.44522 -1.98086
upperneck 4.13084 2.16462 18.5784
head 1.83112 1.34813 6.03379
rclavicle 4.09496e-014 1.90833e-014
rhumerus -34.414 6.5326 -92.1315
rradius 86.1216
rwrist 1.27782
rhand -1.43803 -9.74309
rfingers 7.12502
rthumb 24.2123 -38.2346
lclavicle 4.09496e-014 1.90833e-014
lhumerus 16.4485 -3.60729 107.313
lradius 110.667
lwrist 28.3624
lhand -27.3152 -14.4587
lfingers 7.12502
lthumb -0.724555 15.5198
rfemur -31.8237 0.839953 10.043
rtibia 62.5578
rfoot 372.939 -13.7974
rtoes 40.4194
lfemur -23.203 3.96071 -29.0449
ltibia 9.56865
lfoot 3.80238 5.59126
ltoes -5.49625
760
root 9.28595 6.04938 2.07378 96.4733 -4.33512 -84.7396
lowerback 11.9777 -3.18993 3.00201
upperback 4.36485 -3.98303 4.49539
thorax -1.99983 -2.1134 3.53926
lowerneck -4.93368 2.34984 -2.02767
upperneck 4.00769 2.06001 18.5549
head 1.78765 1.28311 6.02828
rclavicle 7.15625e-015 3.18055e-015
rhumerus -34.3225 6.61905 -92.1401
rradius 86.1159
rwrist 1.27844
rhand -1.56733 -9.54544
rfingers 7.12502
rthumb 24.0883 -38.0534
lclavicle 7.15625e-015 3.18055e-015
lhumerus 16.4621 -3.61608 107.312
lradius 110.676
lwrist 28.3517
lhand -27.3087 -14.3965
lfingers 7.12502
lthumb -0.718275 15.582
rfemur -31.8243 0.886708 10.0564
rtibia 62.442
rfoot 372.935 -13.8726
rtoes 40.6277
lfemur -23.1794 3.94398 -29.0095
ltibia 9.52145
lfoot 3.81225 5.6108
ltoes -5.32549
761
root 9.28284 6.05091 2.07179 96.4892 -4.31547 -84.7184
lowerback 11.9333 -3.18761 3.02088
upperback 4.37345 -3.9811 4.49468
thorax -1.96812 -2.11237 3.5242
lowerneck -4.86568 2.29504 -2.02839
upperneck 3.89666 2.0048 18.5304
head 1.74984 1.24579 6.01664
rclavicle -4.65156e-014 2.38542e-014
rhumerus -34.2501 6.66696 -92.1484
rradius 86.1346
rwrist 1.30564
rhand -1.66321 -9.33167
rfingers 7.12502
rthumb 23.9964 -37.8518
lclavicle -4.65156e-014 2.38542e-014
lhumerus 16.4686 -3.6626 107.306
lradius 110.669
lwrist 28.3363
lhand -27.37 -14.3085
lfingers 7.12502
lthumb -0.77741 15.6699
rfemur -31.8469 0.937553 10.0647
rtibia 62.332
rfoot 372.908 -13.9319
rtoes 40.7761
lfemur -23.1731 3.93564 -28.9852
ltibia 9.48532
lfoot 3.83612 5.63462
ltoes -5.03182
762
root 9.27963 6.05243 2.06991 96.5157 -4.31271 -84.6975
lowerback 11.8799 -3.17695 3.03852
upperback 4.37824 -3.96814 4.47939
thorax -1.93692 -2.10521 3.49258
lowerneck -4.84966 2.27378 -2.00899
upperneck 3.81299 1.98631 18.5376
head 1.72503 1.2312 6.01373
rclavicle 2.04748e-014 -6.99722e-014
rhumerus -34.2024 6.67035 -92.1559
rradius 86.1794
rwrist 1.34778
rhand -1.7266 -9.13158
rfingers 7.12502
rthumb 23.9356 -37.6597
lclavicle 2.04748e-014 -6.99722e-014
lhumerus 16.4643 -3.74871 107.301
lradius 110.647
lwrist 28.3156
lhand -27.4989 -14.1912
lfingers 7.12502
lthumb -0.901942 15.7866
rfemur -31.8899 0.980899 10.0547
rtibia 62.2299
rfoot 372.901 -13.9202
rtoes 40.6681
lfemur -23.1718 3.92692 -28.9855
ltibia 9.43886
lfoot 3.88854 5.66387
ltoes -4.69572
763
root 9.27669 6.05363 2.06842 96.552 -4.31949 -84.666
lowerback 11.8235 -3.16333 3.06288
upperback 4.37786 -3.95007 4.45597
thorax -1.91075 -2.09505 3.44808
lowerneck -4.89712 2.27137 -1.98222
upperneck 3.76425 1.98335 18.5788
head 1.71952 1.22963 6.02228
rclavicle 7.35503e-015 -6.36111e-015
rhumerus -34.1716 6.63586 -92.1613
rradius 86.2438
rwrist 1.39898
rhand -1.77582 -8.94764
rfingers 7.12502
rthumb 23.8884 -37.4819
lclavicle 7.35503e-015 -6.36111e-015
lhumerus 16.4538 -3.86418 107.299
lradius 110.608
lwrist 28.2855
lhand -27.6756 -14.083
lfingers 7.12502
lthumb -1.07265 15.8941
rfemur -31.9483 1.00427 10.0339
rtibia 62.1304
rfoot 372.926 -13.8417
rtoes 40.314
lfemur -23.1758 3.91601 -29.004
ltibia 9.38101
lfoot 3.97644 5.68768
ltoes -4.37207
